<?xml version="1.0" ?><!DOCTYPE svg  PUBLIC '-//W3C//DTD SVG 1.1//EN'  'http://www.w3.org/Graphics/SVG/1.1/DTD/svg11.dtd'><svg enable-background="new 0 0 512 512" version="1.1" viewBox="0 0 512 512" xml:space="preserve" xmlns="http://www.w3.org/2000/svg" xmlns:xlink="http://www.w3.org/1999/xlink"><g id="Layer_1"><g id="Layer_1_1_"><path d="M441.7,392.1L281,484.9c-15.5,8.9-34.5,8.9-50,0L70.3,392.1c-15.5-8.9-25-25.4-25-43.3V163.2    c0-17.9,9.5-34.4,25-43.3L231,27.1c15.5-8.9,34.5-8.9,50,0l160.7,92.8c15.5,8.9,25,25.4,25,43.3v185.6    C466.7,366.6,457.2,383.2,441.7,392.1z" fill="#007BB5"/></g></g><g id="Layer_2_1_"><g><path d="M272.7,240.6c2.6-3.2,4.6-6.3,7.1-8.9c4.8-4.9,10.3-8.4,16.8-10.6c7.2-2.4,14.6-2.8,21.9-2    c11.9,1.1,22.3,5.8,30.3,14.8c3.8,4.2,6.6,9.1,8.6,14.4c1.6,4.1,2.8,8.3,3.6,12.7c0.6,3.7,1.4,7.5,1.4,11.3    c0,26.4,0,52.9,0.1,79.3c0,1.3-0.3,1.7-1.7,1.7c-12.1,0-24.2-0.1-36.3,0c-1.7,0-2-0.6-2-2.1c0-23.1,0-46.2,0-69.3    c0-4.2-0.3-8.5-1.5-12.5c-2.1-6.8-6.3-11.7-13.2-14.2c-5.8-2.1-11.7-2.5-17.6-1c-6.5,1.7-11.1,5.9-14.4,11.7    c-1.8,3.2-2.5,6.6-2.9,10.3c-0.3,2.8-0.3,5.6-0.3,8.4c0,22.1,0,44.3,0,66.4c0,1.9-0.5,2.3-2.3,2.3c-11.7-0.1-23.4-0.1-35.1,0    c-2.1,0-2.4-0.7-2.4-2.5c0.1-40.8,0.1-81.5,0.1-122.3c0-4.8,0-4.8,4.8-4.8c11,0,22,0,33,0c1.5,0,1.9,0.5,1.9,2    C272.7,230.4,272.7,235.2,272.7,240.6z" fill="#FFFFFF"/><path d="M168.1,289c0-20.7,0-41.4,0-62.1c0-1.7,0.4-2.3,2.2-2.3c11.9,0.1,23.8,0.1,35.7,0c1.8,0,2.2,0.6,2.2,2.3    c0,41.3,0,82.7,0,124c0,1.8-0.4,2.4-2.3,2.4c-11.9-0.1-23.8-0.1-35.7,0c-1.7,0-2.1-0.5-2.1-2.2C168.2,330.4,168.1,309.7,168.1,289    z" fill="#FFFFFF"/><path d="M187.6,158.7c12.9-0.4,20.4,9.1,20.5,20.3c0,11.5-8.1,20.1-20.7,20.1c-12.2,0-20.3-8.4-20.4-20.3    C167,167.5,175.2,158.3,187.6,158.7z" fill="#FFFFFF"/></g></g></svg>