<?xml version="1.0" ?><!DOCTYPE svg  PUBLIC '-//W3C//DTD SVG 1.1//EN'  'http://www.w3.org/Graphics/SVG/1.1/DTD/svg11.dtd'><svg enable-background="new 0 0 512 512" version="1.1" viewBox="0 0 512 512" xml:space="preserve" xmlns="http://www.w3.org/2000/svg" xmlns:xlink="http://www.w3.org/1999/xlink"><g id="Layer_1"><g id="Layer_1_1_"><path d="M441.7,392.1L281,484.9c-15.5,8.9-34.5,8.9-50,0L70.3,392.1c-15.5-8.9-25-25.4-25-43.3V163.2c0-17.9,9.5-34.4,25-43.3    L231,27.1c15.5-8.9,34.5-8.9,50,0l160.7,92.8c15.5,8.9,25,25.4,25,43.3v185.6C466.7,366.6,457.2,383.2,441.7,392.1z"/></g></g><g id="Layer_2_1_"><g><path d="M290.1,310.6c1.4,1.2,0.8,2.8,0.8,4.2c0,19.3,0,38.6,0,57.9c0,0.4,0.1,0.8,0.1,1.2c-23,0-46.2,0-69.2,0    c0.3-11.4,0.3-22.8,0-34.1c2.1,0.1,1.1,1.7,1.1,2.5c0.1,9.1,0.1,18.3,0,27.4c-0.1,2.6,0.8,3.3,3.3,3.3c20.1-0.1,40.2-0.1,60.3,0    c2.9,0,3.3-1,3.3-3.5c-0.1-16.5-0.1-33-0.1-49.6C290,316.8,290.1,313.7,290.1,310.6z" fill="#FFFFFF"/><path d="M290.1,310.6c-0.1,3.1-0.1,6.3-0.1,9.4c0,16.5-0.1,33,0.1,49.6c0,2.5-0.5,3.6-3.3,3.5    c-20.1-0.1-40.2-0.1-60.3,0c-2.5,0-3.4-0.7-3.3-3.3c0.1-9.1,0.1-18.3,0-27.4c0-0.8,1-2.5-1.1-2.5c-0.5,0-0.8,0.1-1.3,0.1    c-0.8-0.4-1.6-0.3-2.2,0.6c-8.1,0.8-16.3,1.5-24.3-0.5c-14.2-3.6-24.4-12-30.7-25.4c-4-8.7-9.4-16.8-15.6-24.3    c-2-2.4-5.1-3.3-7.2-5.6c-0.8-0.9-2.1-1.6-1.7-2.9c0.4-1.5,2-1.4,3.3-1.6c13.1-1.1,22.3,5.1,28.8,15.8c5.9,9.8,13.7,17,24.9,20    c8,2.1,15.9,1.6,23.8-0.8c1.8-0.6,2.8-1.4,3-3.6c0.6-8.1,2.3-15.9,7.9-22.8c-2.2-0.4-3.9-0.8-5.6-1c-13.8-2.1-26.7-6.9-37.9-15.4    c-12.5-9.5-20.2-22.3-22.7-37.9c-2.1-13.6-1.3-27.4,0.5-41c1.4-10.5,4.3-20.5,11.9-28.3c2.7-2.7,2.9-5,1.7-8.4    c-4-11.6-2.9-23.3,0.7-34.9c0.7-2.2,1.6-2.8,4-2.2c8.8,2.2,15.6,7.3,21.7,13.6c3,3,5.6,6.4,8,9.8c0.7,1,1.2,1.5,2.5,0.5    c4.7-3.7,10.4-4.9,16.1-5.7c16.5-2.4,33-2.4,49.4-0.1c5.5,0.8,11,1.8,15.6,5.2c2.2,1.6,3,0.7,4.2-1c4.4-6.4,9.7-11.9,16-16.4    c4-2.9,8.4-4.8,13.3-6c2.1-0.5,2.9,0.1,3.6,2c4.4,12.5,5.1,25.1,0.1,37.6c-0.6,1.6-1,2.7,0.5,4c8,7.6,11.8,17.2,13.4,27.9    c1.9,12.9,3,25.9,1.5,39c-2.5,22.1-13.7,38.1-33.2,48.6c-0.7-0.1-1.3,0.1-1.6,0.8c-0.5,0.3-1,0.5-1.5,0.7    c-1.7,0.1-3.1,0.8-4.3,1.9c-0.5,0.2-1.1,0.3-1.6,0.5c-0.8-0.2-1.3,0.1-1.6,0.8c-0.3,0.1-0.7,0.2-1,0.3c-2.6,0.4-5.2,0.7-7.4,2.3    c-0.3,0.1-0.7,0.1-1,0.2c-1.9-0.1-3.8,0.1-5.4,1.2c-1.4,0.2-2.8,0.4-4.2,0.6c-1.1,0.1-2.4-0.1-3.3,0.3c-1,0.5-0.6,1.1,0.3,1.4    l0.1,0.1c0.1,0.9,0.5,1.6,1.4,1.8c0.5,1,1,2.1,1.6,3.1c0.1,1.4,0.4,2.7,1.6,3.6c0.1,0.6,0.3,1.1,0.4,1.7c0.3,1.8,0.3,3.7,1.4,5.3    c0.1,0.4,0.1,0.8,0.2,1.1c-0.4,0.8-0.2,1.5,0.4,2.2C290.1,309.2,290.1,309.9,290.1,310.6z" fill="#FFFFFF"/><path d="M296.8,286.1c2.2-1.6,4.8-1.9,7.4-2.3C301.8,284.8,299.6,286.4,296.8,286.1z" fill="#FFFFFF"/><path d="M290.3,287.6c1.6-1.2,3.5-1.2,5.4-1.2C294.2,287.6,292.3,287.8,290.3,287.6z" fill="#FFFFFF"/><path d="M289.4,305.4c-1.1-1.6-1.1-3.5-1.4-5.3C289.4,301.6,289.9,303.4,289.4,305.4z" fill="#FFFFFF"/><path d="M308.5,282.1c1.2-1.1,2.6-1.9,4.3-1.9C311.7,281.5,310.3,282.3,308.5,282.1z" fill="#FFFFFF"/><path d="M283.1,289.9c-1-0.3-1.4-0.9-0.3-1.4c1-0.4,2.2-0.3,3.3-0.3C285.4,289.3,283.5,288.3,283.1,289.9z" fill="#FFFFFF"/><path d="M287.6,298.4c-1.2-0.9-1.4-2.2-1.6-3.6C287.4,295.7,287.5,297,287.6,298.4z" fill="#FFFFFF"/><path d="M290,308.7c-0.6-0.7-0.7-1.3-0.4-2.2C290.4,307.1,290.6,307.8,290,308.7z" fill="#FFFFFF"/><path d="M218.5,340.5c0.5-0.9,1.2-0.9,2.2-0.6C220.1,340.5,219.4,340.9,218.5,340.5z" fill="#FFFFFF"/><path d="M284.6,291.7c-0.9-0.3-1.3-0.9-1.4-1.8C284.2,290.1,284.6,290.8,284.6,291.7z" fill="#FFFFFF"/><path d="M314.4,279.5c0.3-0.7,0.9-0.9,1.6-0.8C315.8,279.5,315.3,280,314.4,279.5z" fill="#FFFFFF"/><path d="M305.3,283.5c0.3-0.7,0.8-1,1.6-0.8C306.6,283.5,306.2,283.9,305.3,283.5z" fill="#FFFFFF"/></g></g></svg>